<svg width="17" height="17" viewBox="0 0 17 17" fill="none" xmlns="http://www.w3.org/2000/svg">
<g clip-path="url(#clip0_1_400)">
<path d="M2.74424 3.78516H1.79424C1.26924 3.78516 0.844238 4.21016 0.844238 4.73516V6.08516V12.1602C0.844238 12.6852 1.26924 13.1102 1.79424 13.1102H9.61924" stroke="white" stroke-width="0.5" stroke-miterlimit="10" stroke-linecap="round" stroke-linejoin="round"/>
<path d="M10.8192 3.78516H11.7692C12.2942 3.78516 12.7192 4.21016 12.7192 4.73516V8.43516" stroke="white" stroke-width="0.5" stroke-miterlimit="10" stroke-linecap="round" stroke-linejoin="round"/>
<path d="M9.61921 3.78516H3.94421" stroke="white" stroke-width="0.5" stroke-miterlimit="10" stroke-linecap="round" stroke-linejoin="round"/>
<path d="M0.844238 6.08496H12.7192" stroke="white" stroke-width="0.5" stroke-miterlimit="10" stroke-linecap="round" stroke-linejoin="round"/>
<path d="M3.84426 7.03516H2.49426V8.38516H3.84426V7.03516Z" stroke="white" stroke-width="0.5" stroke-miterlimit="10" stroke-linecap="round" stroke-linejoin="round"/>
<path d="M6.26919 7.03516H4.91919V8.38516H6.26919V7.03516Z" stroke="white" stroke-width="0.5" stroke-miterlimit="10" stroke-linecap="round" stroke-linejoin="round"/>
<path d="M8.64419 7.03516H7.29419V8.38516H8.64419V7.03516Z" stroke="white" stroke-width="0.5" stroke-miterlimit="10" stroke-linecap="round" stroke-linejoin="round"/>
<path d="M11.0692 7.03516H9.71924V8.38516H11.0692V7.03516Z" stroke="white" stroke-width="0.5" stroke-miterlimit="10" stroke-linecap="round" stroke-linejoin="round"/>
<path d="M3.84426 9.35938H2.49426V10.7094H3.84426V9.35938Z" stroke="white" stroke-width="0.5" stroke-miterlimit="10" stroke-linecap="round" stroke-linejoin="round"/>
<path d="M6.26919 9.35938H4.91919V10.7094H6.26919V9.35938Z" stroke="white" stroke-width="0.5" stroke-miterlimit="10" stroke-linecap="round" stroke-linejoin="round"/>
<path d="M8.64419 9.35938H7.29419V10.7094H8.64419V9.35938Z" stroke="white" stroke-width="0.5" stroke-miterlimit="10" stroke-linecap="round" stroke-linejoin="round"/>
<path d="M13.0942 9.68496L13.7442 10.91C13.8192 11.035 13.9192 11.11 14.0692 11.135L15.4192 11.385C15.7692 11.435 15.8942 11.885 15.6692 12.135L14.7192 13.135C14.6192 13.235 14.5692 13.36 14.5942 13.51L14.7942 14.885C14.8442 15.235 14.4692 15.51 14.1692 15.335L12.9192 14.735C12.7942 14.685 12.6442 14.685 12.5442 14.735L11.2942 15.335C10.9692 15.485 10.6192 15.235 10.6692 14.885L10.8692 13.51C10.8942 13.385 10.8442 13.235 10.7442 13.135L9.79419 12.135C9.54419 11.885 9.69419 11.46 10.0442 11.385L11.3942 11.135C11.5192 11.11 11.6442 11.035 11.7192 10.91L12.3192 9.68496C12.4942 9.38496 12.9442 9.38496 13.0942 9.68496Z" stroke="white" stroke-width="0.5" stroke-miterlimit="10" stroke-linecap="round" stroke-linejoin="round"/>
<path d="M3.34426 5.05977C3.01926 5.05977 2.74426 4.78477 2.74426 4.45977V3.10977C2.74426 2.78477 3.01926 2.50977 3.34426 2.50977C3.66926 2.50977 3.94426 2.78477 3.94426 3.10977V4.48477C3.94426 4.80977 3.66926 5.05977 3.34426 5.05977Z" stroke="white" stroke-width="0.5" stroke-miterlimit="10" stroke-linecap="round" stroke-linejoin="round"/>
<path d="M10.2193 5.05977C9.89426 5.05977 9.61926 4.78477 9.61926 4.45977V3.10977C9.61926 2.78477 9.89426 2.50977 10.2193 2.50977C10.5443 2.50977 10.8193 2.78477 10.8193 3.10977V4.48477C10.8193 4.80977 10.5443 5.05977 10.2193 5.05977Z" stroke="white" stroke-width="0.5" stroke-miterlimit="10" stroke-linecap="round" stroke-linejoin="round"/>
<path d="M5.11926 4.95996H8.44426" stroke="white" stroke-width="0.5" stroke-miterlimit="10" stroke-linecap="round" stroke-linejoin="round"/>
</g>
<defs>
<clipPath id="clip0_1_400">
<rect width="16" height="16" fill="white" transform="translate(0.319214 0.949219)"/>
</clipPath>
</defs>
</svg>
