<svg width="98" height="81" viewBox="0 0 98 81" fill="none" xmlns="http://www.w3.org/2000/svg">
<path d="M20.9548 24.5456C20.9548 16.8174 20.9548 9.08926 20.9548 1.36108C20.9548 1.08123 20.9548 0.801382 21.0194 0.521531C21.127 -0.0166431 21.3854 -0.124279 21.859 0.134045C22.8492 0.650692 23.8394 1.18887 24.8297 1.74857C27.8219 3.47072 30.8357 5.19288 33.828 6.91504C38.4563 9.58438 43.1061 12.2537 47.7344 14.9661C48.7677 15.5689 49.6718 15.5689 50.7051 14.9661C54.3216 12.835 57.9597 10.7468 61.5977 8.6372C64.9129 6.7213 68.2496 4.8054 71.5647 2.8895C72.8779 2.13605 74.191 1.36108 75.5257 0.629166C75.8486 0.435423 76.193 0.284733 76.559 0.155572C77.0326 0.00488288 77.2694 0.155573 77.3985 0.629166C77.4416 0.801382 77.4631 0.995124 77.4631 1.16734C77.4846 1.46872 77.4631 1.79162 77.4631 2.093C77.4631 17.1403 77.4631 32.1662 77.4631 47.2135C77.4631 47.5149 77.4631 47.8378 77.4631 48.1392C77.4631 48.3329 77.4201 48.5267 77.3555 48.7204C77.2694 49.0003 77.0541 49.1294 76.7743 49.0648C76.5159 49.0003 76.2361 48.9141 75.9993 48.785C74.7292 48.0746 73.4806 47.3427 72.2105 46.6323C69.3044 44.9747 66.3983 43.2956 63.4921 41.6596C62.6526 41.186 62.2436 40.5402 62.2436 39.5714C62.2651 35.5674 62.2651 31.5634 62.2651 27.5594C62.2651 27.2795 62.2651 26.9997 62.2436 26.7198C62.2005 26.2463 62.0068 26.1171 61.5762 26.3324C61.0596 26.5907 60.5429 26.8921 60.0263 27.1719C56.9049 28.9802 53.7835 30.7454 50.6836 32.5752C49.6503 33.1779 48.7461 33.1995 47.7129 32.5752C44.3546 30.5732 40.9749 28.6357 37.5952 26.6768C37.3584 26.5476 37.1216 26.4185 36.8848 26.3324C36.5188 26.2032 36.282 26.3539 36.1959 26.7198C36.1529 26.8921 36.1529 27.0858 36.1529 27.258C36.1529 28.3128 36.1529 29.3677 36.1744 30.444C36.1744 33.4147 36.1744 36.3855 36.1959 39.3562C36.1959 39.4638 36.1959 39.5499 36.1959 39.6576C36.1959 40.5402 35.7869 41.1644 35.0335 41.595C32.6655 42.9512 30.2975 44.2859 27.9511 45.642C26.2935 46.5892 24.6359 47.558 22.9784 48.5051C22.6124 48.7204 22.2034 48.9142 21.7944 49.0433C21.3638 49.194 21.127 49.0433 21.0409 48.5912C20.9979 48.3544 20.9764 48.0961 20.9764 47.8378C20.9764 40.5402 20.9764 33.2425 20.9764 25.9449C20.9548 25.4713 20.9548 24.9977 20.9548 24.5456ZM63.7504 32.5752C63.772 34.4911 63.772 36.407 63.772 38.3014C63.772 38.4305 63.772 38.5812 63.7935 38.7104C63.8581 39.1624 64.2671 39.3992 64.6976 39.227C64.8483 39.1624 64.9775 39.0763 65.1066 39.0117C68.2711 37.1174 71.4356 35.2445 74.6 33.3502C74.7507 33.264 74.9229 33.1564 75.0521 33.0488C75.3319 32.7905 75.3319 32.3814 75.0521 32.1231C74.8799 31.9724 74.6861 31.8648 74.4924 31.7572C72.598 30.6378 70.6821 29.5184 68.7877 28.4205C67.4746 27.6455 66.1615 26.8705 64.8483 26.1171C64.2671 25.7727 63.7935 26.0525 63.7935 26.7414C63.7504 28.7003 63.7504 30.6378 63.7504 32.5752ZM76.3222 40.6908H76.3437C76.3437 38.7534 76.3437 36.816 76.3437 34.8786C76.3437 34.7925 76.3437 34.7063 76.3437 34.6202C76.2576 34.1466 75.8271 33.9314 75.3965 34.1251C75.3535 34.1466 75.2889 34.1682 75.2458 34.2112C71.9522 36.1487 68.6586 38.0646 65.3434 40.002C65.2573 40.045 65.1712 40.1096 65.1066 40.1742C64.7622 40.4541 64.7622 40.8846 65.1066 41.186C65.2143 41.2721 65.3219 41.3367 65.4295 41.4012C68.228 43.0588 71.005 44.7379 73.8035 46.3955C74.2986 46.6969 74.7722 46.9982 75.2889 47.2781C75.8055 47.5795 76.2791 47.3212 76.3222 46.7184C76.3222 46.6108 76.3222 46.5031 76.3222 46.374C76.3222 44.4581 76.3222 42.5637 76.3222 40.6908ZM63.7074 16.6452C63.7074 18.475 63.7074 20.3263 63.7074 22.1561C63.7074 22.2853 63.7074 22.4145 63.7074 22.5221C63.7504 23.0172 63.9227 23.1033 64.3532 22.8665C64.3962 22.845 64.4178 22.8235 64.4608 22.8019C67.7114 20.9291 70.9835 19.0562 74.2341 17.1619C74.8153 16.839 74.8153 16.4084 74.2556 16.064C74.1049 15.9779 73.9327 15.8918 73.782 15.7841C72.5765 15.0953 71.371 14.3849 70.1655 13.696C68.3142 12.6197 66.4413 11.5433 64.59 10.4885C64.4608 10.4239 64.3532 10.3594 64.224 10.2948C63.9442 10.1871 63.7935 10.2732 63.7289 10.5531C63.6859 10.7253 63.6859 10.9191 63.6859 11.0913C63.6859 12.9856 63.7074 14.8154 63.7074 16.6452ZM50.2746 24.5887C50.2961 26.44 50.2961 28.2913 50.2961 30.1426C50.2961 30.3148 50.2961 30.4871 50.3176 30.6378C50.3607 30.8745 50.5114 30.9822 50.7482 30.8746C50.9204 30.81 51.0711 30.7239 51.2217 30.6162C54.5154 28.7219 57.809 26.806 61.1241 24.9331C61.6838 24.6102 61.5762 24.3734 61.1241 24.1366C59.7895 23.4047 58.4979 22.6297 57.1847 21.8763C55.2042 20.7353 53.2238 19.5944 51.2433 18.4535C51.0926 18.3674 50.9204 18.2813 50.7482 18.2167C50.5114 18.1521 50.3607 18.2382 50.3176 18.475C50.2746 18.6688 50.2746 18.884 50.2746 19.0993C50.2746 20.9291 50.2746 22.7589 50.2746 24.5887ZM62.222 16.5376C62.222 14.7293 62.222 12.9211 62.222 11.0913C62.222 10.9191 62.222 10.7253 62.179 10.5531C62.1144 10.2302 61.9422 10.1656 61.6623 10.3163C61.5977 10.3378 61.5332 10.3809 61.4901 10.4239C60.629 10.9191 59.7464 11.4357 58.8853 11.9308C56.5174 13.3085 54.1279 14.6863 51.7599 16.064C51.6523 16.1286 51.5446 16.1932 51.4585 16.2793C51.2002 16.5161 51.2217 16.8605 51.4801 17.0758C51.5662 17.1403 51.6738 17.2049 51.7599 17.248C54.7091 18.9486 57.6583 20.6492 60.6075 22.3283C60.8658 22.479 61.1241 22.6512 61.404 22.7804C61.8345 22.9957 62.2005 22.7589 62.222 22.3068C62.222 22.2207 62.222 22.1346 62.222 22.0485C62.222 20.2187 62.222 18.3889 62.222 16.5376ZM76.0208 24.7178C75.9993 22.9096 75.9993 21.1013 75.9993 19.2715C75.9993 18.5396 75.4826 18.2382 74.8584 18.6042C71.7154 20.4124 68.594 22.2207 65.4295 24.029C64.8483 24.3519 64.8053 24.8039 65.4295 25.1484C66.635 25.7942 67.7975 26.5046 68.9815 27.1934C70.9404 28.3344 72.8994 29.4753 74.8584 30.6162C75.0306 30.7239 75.2028 30.7884 75.3965 30.853C75.7194 30.9391 75.9132 30.8315 75.9562 30.4871C75.9993 30.2503 75.9993 30.0135 75.9993 29.7767C76.0208 28.076 76.0208 26.3969 76.0208 24.7178ZM75.8701 8.65872C75.8701 6.89351 75.8701 5.1283 75.8701 3.34156C75.8701 3.2124 75.8701 3.08324 75.8701 2.9756C75.8271 2.58812 75.5257 2.4159 75.1813 2.56659C75.0951 2.58812 75.0306 2.6527 74.966 2.69575C71.8015 4.52555 68.6371 6.35534 65.4726 8.18513C65.2358 8.31429 64.9775 8.42193 64.9775 8.74483C64.9775 9.04621 65.2573 9.17537 65.4726 9.30453C68.2065 10.876 70.9404 12.4475 73.6528 14.0189C74.1049 14.2773 74.5785 14.5356 75.0306 14.8154C75.3965 15.0307 75.8271 14.7509 75.8701 14.3634C75.8701 14.2342 75.8701 14.105 75.8701 13.9974C75.8701 12.1891 75.8701 10.4239 75.8701 8.65872ZM63.5567 9.28301C63.7935 9.28301 63.9872 9.06774 63.9657 8.85247C63.9442 8.6372 63.7289 8.44345 63.5136 8.44345C63.2984 8.46498 63.0831 8.65872 63.1046 8.89552C63.1262 9.13232 63.3199 9.30453 63.5567 9.28301ZM63.4706 24.6748C63.4706 24.4595 63.2768 24.2442 63.0616 24.2442C62.8248 24.2442 62.631 24.4165 62.6095 24.6317C62.588 24.8685 62.8032 25.1053 63.04 25.1053C63.2553 25.1053 63.4706 24.8901 63.4706 24.6748ZM63.6428 40.8415C63.8581 40.8415 64.0518 40.6263 64.0518 40.411C64.0518 40.1742 63.8365 39.9805 63.5997 39.9805C63.3845 40.002 63.1907 40.1957 63.2123 40.4325C63.2123 40.6263 63.4275 40.8415 63.6428 40.8415ZM76.7958 16.7959C76.7958 16.5591 76.6451 16.3654 76.3868 16.3654C76.15 16.3654 75.9777 16.5376 75.9562 16.7744C75.9562 17.0112 76.1284 17.2049 76.3652 17.2265C76.602 17.2265 76.7958 17.0327 76.7958 16.7959ZM75.9778 32.7043C75.9778 32.9411 76.193 33.1349 76.4083 33.1349C76.6236 33.1349 76.8173 32.9196 76.8173 32.6828C76.8173 32.4245 76.6451 32.2738 76.3868 32.2738C76.15 32.2738 75.9778 32.446 75.9778 32.7043ZM50.5975 16.7744C50.5975 16.5161 50.4252 16.3654 50.1669 16.3654C49.9301 16.3654 49.7579 16.5591 49.7579 16.7959C49.7579 17.0327 49.9732 17.2265 50.1885 17.2265C50.4252 17.2265 50.619 17.0112 50.5975 16.7744ZM49.7794 31.8648C49.7794 32.1016 49.9947 32.2953 50.21 32.2953C50.4252 32.2953 50.619 32.0801 50.619 31.8433C50.619 31.6065 50.4468 31.4342 50.1885 31.4342C49.9517 31.4342 49.7794 31.628 49.7794 31.8648Z" fill="white"/>
<path d="M63.5567 9.28308C63.3199 9.28308 63.1261 9.11087 63.1046 8.8956C63.1046 8.68033 63.2984 8.46506 63.5136 8.44353C63.7289 8.422 63.9442 8.61575 63.9657 8.85254C63.9872 9.08934 63.7935 9.28308 63.5567 9.28308Z" fill="#FFC300"/>
<path d="M63.4708 24.6753C63.4708 24.8906 63.2556 25.1059 63.0403 25.1059C62.825 25.1059 62.5882 24.8691 62.6098 24.6323C62.6313 24.417 62.825 24.2233 63.0618 24.2448C63.2986 24.2448 63.4708 24.4385 63.4708 24.6753Z" fill="#FFC300"/>
<path d="M63.6431 40.8416C63.4278 40.8416 63.2126 40.6478 63.2126 40.4326C63.1911 40.2173 63.3848 40.002 63.6001 39.9805C63.8369 39.959 64.0737 40.1742 64.0521 40.411C64.0521 40.6048 63.8369 40.82 63.6431 40.8416Z" fill="#FFC300"/>
<path d="M76.796 16.7963C76.796 17.0331 76.5807 17.2268 76.3654 17.2268C76.1502 17.2268 75.9564 17.0115 75.9564 16.7747C75.9564 16.5164 76.1286 16.3657 76.387 16.3657C76.6453 16.3657 76.8175 16.5595 76.796 16.7963Z" fill="#FFC300"/>
<path d="M75.9779 32.704C75.9779 32.4672 76.1501 32.2734 76.3869 32.2734C76.6237 32.2734 76.7959 32.4457 76.8175 32.6824C76.8175 32.9192 76.6237 33.113 76.4084 33.1345C76.1932 33.1345 75.9779 32.9408 75.9779 32.704Z" fill="#FFC300"/>
<path d="M50.5976 16.7747C50.5976 17.0115 50.4254 17.2053 50.1886 17.2268C49.9733 17.2268 49.7796 17.0331 49.7581 16.7963C49.7581 16.5595 49.9303 16.3657 50.1671 16.3657C50.4254 16.3657 50.5976 16.5379 50.5976 16.7747Z" fill="#FFC300"/>
<path d="M49.7794 31.8646C49.7794 31.6278 49.9516 31.4341 50.1884 31.4341C50.4252 31.4341 50.5974 31.6063 50.619 31.8431C50.619 32.0799 50.4252 32.2736 50.21 32.2952C49.9947 32.2952 49.7794 32.1014 49.7794 31.8646Z" fill="#FFC300"/>
<path d="M98 80.1281H0.396729V59.29H98V80.1281ZM1.30086 79.2025H97.0743V60.1942H1.30086V79.2025Z" fill="#FFC300"/>
<path d="M3.949 59.7422H0.849121V79.6546H3.949V59.7422Z" fill="#FFC300"/>
<path d="M97.5481 59.7422H46.7875V79.6546H97.5481V59.7422Z" fill="#FFC300"/>
<path d="M10.1274 71.7327V66.9106H11.0531L13.0982 70.3119H12.603L14.6266 66.9106H15.5522L15.5738 71.7327H14.5189V68.5036H14.7127L13.0982 71.216H12.603L10.9455 68.5036H11.1823V71.7327H10.1274Z" fill="white"/>
<path d="M18.2213 71.7327V66.9106H21.8809V67.8148H19.3407V70.8501H21.967V71.7542H18.2213V71.7327ZM19.2546 69.7091V68.8481H21.5795V69.7091H19.2546Z" fill="white"/>
<path d="M25.9494 71.7974C25.5619 71.7974 25.1959 71.7543 24.83 71.6467C24.4855 71.5391 24.1841 71.4099 23.9689 71.2377L24.3564 70.3981C24.5716 70.5488 24.8084 70.6565 25.0883 70.7641C25.3681 70.8502 25.648 70.9148 25.9494 70.9148C26.1646 70.9148 26.3584 70.8933 26.4875 70.8502C26.6167 70.8072 26.7243 70.7426 26.7889 70.678C26.8535 70.5919 26.875 70.5058 26.875 70.4197C26.875 70.2905 26.832 70.1829 26.7243 70.1183C26.6167 70.0322 26.4875 69.9891 26.3153 69.9246C26.1431 69.86 25.9709 69.8384 25.7771 69.7954C25.5834 69.7523 25.3681 69.6877 25.1744 69.6232C24.9806 69.5586 24.7869 69.4725 24.6362 69.3648C24.464 69.2572 24.3348 69.1281 24.2272 68.9558C24.1196 68.7836 24.0765 68.5683 24.0765 68.3316C24.0765 68.0517 24.1411 67.7934 24.2918 67.5781C24.4425 67.3413 24.6577 67.1691 24.9591 67.0399C25.2605 66.9108 25.648 66.8462 26.1 66.8462C26.4014 66.8462 26.7028 66.8892 27.0042 66.9538C27.3055 67.0184 27.5639 67.126 27.7791 67.2767L27.4347 68.1163C27.2194 67.9871 26.9826 67.901 26.7674 67.8364C26.5521 67.7719 26.3153 67.7503 26.1 67.7503C25.8848 67.7503 25.7126 67.7719 25.5619 67.8364C25.4327 67.8795 25.3251 67.9441 25.2605 68.0302C25.1959 68.1163 25.1744 68.2024 25.1744 68.31C25.1744 68.4392 25.2174 68.5253 25.3251 68.6114C25.4327 68.6975 25.5619 68.7406 25.7341 68.7836C25.9063 68.8267 26.0785 68.8697 26.2723 68.9128C26.466 68.9558 26.6813 69.0204 26.875 69.0635C27.0688 69.1281 27.2625 69.2142 27.4132 69.3003C27.5854 69.4079 27.7146 69.5371 27.8222 69.7093C27.9298 69.8815 27.9729 70.0752 27.9729 70.3336C27.9729 70.6134 27.8868 70.8502 27.7361 71.087C27.5854 71.3023 27.3486 71.496 27.0472 71.6252C26.7889 71.7328 26.4229 71.7974 25.9494 71.7974Z" fill="white"/>
<path d="M30.2979 71.7327V66.9106H31.4173V71.7327H30.2979ZM31.3311 69.7522V68.805H33.6991V69.7522H31.3311ZM33.5915 71.7327V66.9106H34.7109V71.7327H33.5915Z" fill="white"/>
<path d="M37.3802 71.7327V66.9106H38.4997V71.7327H37.3802ZM38.4135 69.7522V68.805H40.7815V69.7522H38.4135ZM40.6954 71.7327V66.9106H41.8148V71.7327H40.6954Z" fill="white"/>
<path d="M53.9773 71.7327V66.9106H57.6369V67.8148H55.0967V70.8501H57.723V71.7542H53.9773V71.7327ZM54.9891 69.7091V68.8481H57.314V69.7091H54.9891Z" fill="#000814"/>
<path d="M61.4902 71.7327L59.4021 66.9106H60.6076L62.4374 71.1945H61.727L63.5783 66.9106H64.6977L62.6096 71.7327H61.4902Z" fill="#000814"/>
<path d="M66.6136 71.7327V66.9106H70.2732V67.8148H67.7115V70.8501H70.3378V71.7542H66.6136V71.7327ZM67.6469 69.7091V68.8481H69.9719V69.7091H67.6469Z" fill="#000814"/>
<path d="M72.7489 71.7327V66.9106H73.6746L76.5161 70.398H76.0641V66.9106H77.1619V71.7327H76.2363L73.3732 68.2453H73.8252V71.7327H72.7489Z" fill="#000814"/>
<path d="M80.8429 71.7327V67.8148H79.293V66.9106H83.4907V67.8148H81.9408V71.7327H80.8429Z" fill="#000814"/>
<path d="M87.1721 71.7974C86.7846 71.7974 86.4187 71.7543 86.0527 71.6467C85.7083 71.5391 85.4069 71.4099 85.1917 71.2377L85.5791 70.3981C85.7944 70.5488 86.0312 70.6565 86.311 70.7641C86.5909 70.8502 86.8708 70.9148 87.1721 70.9148C87.3874 70.9148 87.5811 70.8933 87.7103 70.8502C87.8395 70.8072 87.9471 70.7426 88.0117 70.678C88.0763 70.5919 88.0978 70.5058 88.0978 70.4197C88.0978 70.2905 88.0547 70.1829 87.9471 70.1183C87.8395 70.0322 87.7103 69.9891 87.5381 69.9246C87.3659 69.86 87.1937 69.8384 86.9999 69.7954C86.8062 69.7523 86.5909 69.6877 86.3972 69.6232C86.2034 69.5586 86.0097 69.4725 85.859 69.3648C85.6868 69.2572 85.5576 69.1281 85.45 68.9558C85.3423 68.7836 85.2993 68.5683 85.2993 68.3316C85.2993 68.0517 85.3639 67.7934 85.5146 67.5781C85.6652 67.3413 85.8805 67.1691 86.1819 67.0399C86.4833 66.9108 86.8708 66.8462 87.3228 66.8462C87.6242 66.8462 87.9256 66.8892 88.2269 66.9538C88.5283 67.0184 88.7867 67.126 89.0019 67.2767L88.6575 68.1163C88.4422 67.9871 88.2054 67.901 87.9902 67.8364C87.7749 67.7719 87.5381 67.7503 87.3228 67.7503C87.1075 67.7503 86.9353 67.7719 86.7846 67.8364C86.6555 67.8795 86.5478 67.9441 86.4833 68.0302C86.4187 68.1163 86.3972 68.2024 86.3972 68.31C86.3972 68.4392 86.4402 68.5253 86.5478 68.6114C86.6555 68.6975 86.7846 68.7406 86.9569 68.7836C87.1291 68.8267 87.3013 68.8697 87.495 68.9128C87.6888 68.9558 87.904 69.0204 88.0978 69.0635C88.2915 69.1281 88.4853 69.2142 88.636 69.3003C88.8082 69.4079 88.9373 69.5371 89.045 69.7093C89.1526 69.8815 89.1957 70.0752 89.1957 70.3336C89.1957 70.6134 89.1096 70.8502 88.9589 71.087C88.8082 71.3023 88.5714 71.496 88.27 71.6252C88.0117 71.7328 87.6457 71.7974 87.1721 71.7974Z" fill="#000814"/>
</svg>
