<svg width="12" height="13" viewBox="0 0 12 13" fill="none" xmlns="http://www.w3.org/2000/svg">
<path d="M8.39995 4.28711H8.52495C8.79995 4.28711 9.04995 4.49805 9.04995 4.7793V5.13086C9.04995 5.3418 8.89995 5.5293 8.67495 5.59961L8.37495 5.69336C8.24995 6.4668 7.74995 7.24023 7.07495 7.70898C6.74995 7.89648 6.37495 7.99023 5.99995 7.99023C5.62495 7.99023 5.24995 7.89649 4.92495 7.68555C4.22495 7.24024 3.72495 6.44336 3.59995 5.66992L3.32495 5.57617C3.09995 5.50586 2.94995 5.31836 2.94995 5.10742V4.75586C2.94995 4.49805 3.17495 4.26367 3.47495 4.26367H3.59995" stroke="#231F20" stroke-width="0.5" stroke-miterlimit="10" stroke-linecap="round" stroke-linejoin="round"/>
<path d="M3.2 4.3571V3.81804C3.2 3.13835 2.95 2.50554 2.5 1.98991C2.5 1.98991 5.3 -0.611651 7.475 1.31022C7.475 1.31022 10.125 1.56804 8.9 4.3571" stroke="#231F20" stroke-width="0.5" stroke-miterlimit="10" stroke-linecap="round" stroke-linejoin="round"/>
<path d="M3.59998 4.28711L4.09998 4.4043C4.09998 4.4043 4.19998 3.06836 5.62498 3.18555C6.62498 3.25586 7.22498 2.66992 7.22498 2.66992C7.22498 2.66992 8.04998 3.32617 7.79998 4.42773L8.37497 4.28711" stroke="#231F20" stroke-width="0.5" stroke-miterlimit="10" stroke-linecap="round" stroke-linejoin="round"/>
<path d="M5.14996 7.80273V8.36523C5.14996 8.81055 5.52496 9.16211 5.99996 9.16211C6.22496 9.16211 6.44996 9.06836 6.59996 8.92773C6.74996 8.78711 6.84996 8.59961 6.84996 8.36523V7.80273" stroke="#231F20" stroke-width="0.5" stroke-miterlimit="10" stroke-linecap="round" stroke-linejoin="round"/>
<path d="M3.19998 12.8418H1.09998V10.5918C1.09998 10.0762 1.44998 9.58398 1.99998 9.41992L5.17498 8.38867" stroke="#231F20" stroke-width="0.5" stroke-miterlimit="10" stroke-linecap="round" stroke-linejoin="round"/>
<path d="M6.84998 8.38867L9.99997 9.41992C10.525 9.58398 10.875 10.0762 10.875 10.5918V12.8418H8.77497" stroke="#231F20" stroke-width="0.5" stroke-miterlimit="10" stroke-linecap="round" stroke-linejoin="round"/>
<path d="M6.325 10.1232L6.85 11.0372C6.9 11.131 7 11.2013 7.1 11.2013L8.2 11.3888C8.475 11.4357 8.6 11.7638 8.4 11.9513L7.625 12.7013C7.55 12.7716 7.525 12.8888 7.525 12.9825L7.675 14.0138C7.725 14.2716 7.425 14.4825 7.175 14.3653L6.175 13.8966C6.075 13.8497 5.95 13.8497 5.85 13.8966L4.85 14.3653C4.6 14.4825 4.3 14.2716 4.35 14.0138L4.5 12.9825C4.525 12.8888 4.475 12.7716 4.4 12.7013L3.6 11.9747C3.4 11.7872 3.525 11.4591 3.8 11.4122L4.9 11.2247C5 11.2013 5.1 11.1544 5.15 11.0607L5.675 10.1466C5.825 9.88878 6.175 9.88878 6.325 10.1232Z" stroke="#231F20" stroke-width="0.5" stroke-miterlimit="10" stroke-linecap="round" stroke-linejoin="round"/>
</svg>
